<?xml version="1.0" encoding="UTF-8" standalone="no"?>
<!DOCTYPE svg PUBLIC "-//W3C//DTD SVG 1.1//EN" "http://www.w3.org/Graphics/SVG/1.1/DTD/svg11.dtd">
<svg width="100%" height="100%" viewBox="0 0 1545 354" version="1.1" xmlns="http://www.w3.org/2000/svg" xmlns:xlink="http://www.w3.org/1999/xlink" xml:space="preserve" xmlns:serif="http://www.serif.com/" style="fill-rule:evenodd;clip-rule:evenodd;stroke-linejoin:round;stroke-miterlimit:2;">
    <g id="Layer-1" serif:id="Layer 1">
        <g id="path1" transform="matrix(1.333333,0,0,-1.333333,1.333333,352.3656)">
            <path d="M0,21.095C4.281,21.003 8.944,20.14 10.131,23.919C10.737,25.847 10.364,176.522 10.354,192.958C10.352,197.275 10.348,201.591 10.35,205.908C10.353,219.247 9.163,219.396 16.312,216.975C18.371,216.277 19.379,216.277 19.653,213.916L19.664,48.237C19.679,44.4 19.087,25.008 20.206,23.056C21.863,20.162 27.717,20.273 29.174,22.69C30.395,24.715 29.839,31.776 29.839,34.64L29.846,200.404C29.84,213.955 28.702,213.713 36.691,210.807C39.592,209.751 39.297,208.827 39.286,205.586L39.319,97.773C39.391,77.273 39.303,56.76 39.316,36.258C39.321,29.131 36.797,18.871 46.958,21.054C49.234,21.543 50.137,22.954 50.189,25.564C50.323,32.388 49.732,51.964 50.276,56.655C57.765,62.421 68.376,69.59 75.188,75.088L83.589,81.16L92.606,70.535C97.816,64.199 108.409,52.129 113.108,46.026L129.031,26.989C135.715,19.247 131.584,20.914 143.161,20.913C152.687,20.913 175.359,20.507 183.262,20.98L178.939,26.067C171.452,34.465 163.803,42.779 156.466,51.496L151.969,56.718C150.495,58.516 148.828,60.116 147.483,61.949L123.282,90.186C120.414,93.952 114.852,99.789 112.219,103.277L146.045,129.527C147.347,130.538 150.028,132.226 150.777,133.54C154.342,139.797 175.25,176.285 175.448,177.596L159.804,168.226C154.691,165.026 149.485,161.863 144.057,158.718C138.722,155.627 133.588,152.301 128.325,149.2C112.061,139.619 97.448,130.216 81.496,120.27L58.07,105.811C55.44,104.145 52.866,102.464 50.249,101.085L50.147,217.049L0.05,235.508L0,21.095Z" style="fill:rgb(205,175,147);"/>
        </g>
        <g id="path2" transform="matrix(1.333333,0,0,-1.333333,1.333333,352.3656)">
            <path d="M63.112,122.598C64.897,123.46 66.688,124.894 68.371,125.94L104.781,149.739L104.816,212.507L89.819,218.274L83.652,263.274C82.763,262.412 82.554,261.459 81.907,260.035L77.295,249.428C75.291,244.695 73.231,240.104 71.293,235.358C69.554,231.104 63.038,217.513 63.077,213.361L63.112,122.598Z" style="fill:rgb(205,175,147);"/>
        </g>
        <g id="path3" transform="matrix(1.333333,0,0,-1.333333,1.333333,352.3656)">
            <path d="M118.252,213.02L118.17,159.638C119.065,160.428 122.755,167.02 123.592,168.498C129.933,179.703 143.551,202.454 150.914,213.055L159.575,225.755C160.423,226.97 161.978,229.072 162.533,230.229C159.613,229.535 154.661,227.198 151.496,226.073L129.317,217.494C125.557,216.034 121.668,214.271 118.252,213.02" style="fill:rgb(205,175,147);"/>
        </g>
        <g id="path4" transform="matrix(1.333333,0,0,-1.333333,1.333333,352.3656)">
            <path d="M286.565,109.645L313.831,109.645L272.851,179.197L312.851,223.932L281.994,223.932L248.524,187.034L248.524,223.932L225.667,223.932L225.667,109.645L248.524,109.645L248.524,152.911L257.341,161.891L286.565,109.645ZM422.834,223.932L364.548,109.482L390.181,109.482L425.61,179.034L458.263,109.482L483.57,109.482L429.528,223.932L422.834,223.932ZM558.777,223.932L535.92,223.932L535.92,109.645L601.39,109.645L601.39,132.34L558.777,132.34L558.777,223.932ZM674.802,235.034C681.659,235.034 686.883,240.096 686.883,247.116C686.883,254.137 681.659,259.198 674.802,259.198C667.781,259.198 662.72,254.137 662.72,247.116C662.72,240.096 667.781,235.034 674.802,235.034ZM663.536,109.645L663.536,223.932L686.394,223.932L686.394,109.645L663.536,109.645ZM835.724,109.482L771.397,176.258L771.397,109.482L748.54,109.482L748.54,223.932L755.724,223.932L818.908,159.932L818.908,223.932L841.765,223.932L841.765,109.482L835.724,109.482ZM903.911,223.932L903.911,109.645L913.217,109.645L913.217,109.482L936.238,109.482C943.912,109.482 951.422,110.952 958.442,114.054C965.299,116.829 971.34,121.074 976.565,126.299C981.953,131.523 986.034,137.564 988.81,144.421C991.912,151.442 993.381,158.952 993.381,166.789C993.381,174.463 991.912,181.973 988.81,188.993C986.034,195.851 981.953,201.891 976.565,207.279C971.34,212.504 965.299,216.585 958.442,219.524C951.422,222.463 943.912,223.932 936.238,223.932L903.911,223.932ZM926.769,132.34L926.769,201.075L936.238,201.075C955.177,201.075 970.524,185.728 970.524,166.789C970.524,147.85 955.177,132.34 936.238,132.34L926.769,132.34ZM1095.854,223.932L1037.568,109.482L1063.201,109.482L1098.63,179.034L1131.283,109.482L1156.59,109.482L1102.548,223.932L1095.854,223.932Z" style="fill:rgb(205,175,147);fill-rule:nonzero;"/>
        </g>
        <g id="path6" transform="matrix(1.333333,0,0,-1.333333,1.333333,352.3656)">
            <rect x="225.667" y="45.409" width="144.034" height="6.037" style="fill:rgb(205,175,147);"/>
        </g>
        <g id="path7" transform="matrix(1.333333,0,0,-1.333333,1.333333,352.3656)">
            <rect x="1012.556" y="45.409" width="144.034" height="6.037" style="fill:rgb(205,175,147);"/>
        </g>
        <g transform="matrix(0.64727,0,0,0.64727,434.371414,216.816788)">
            <g transform="matrix(1,0,0,1,-51.498281,0)">
                <path d="M328.158,43.995L290.111,119.275L290.111,160.826L263.796,160.826L263.796,119.764L226.726,43.995L256.789,43.995L275.609,87.583C275.935,88.397 276.831,91.575 278.298,97.115L278.624,97.115C279.33,93.204 280.171,90.136 281.149,87.909L300.295,43.995L328.158,43.995Z" style="fill:url(#_Radial1);fill-rule:nonzero;stroke:rgb(255,251,98);stroke-width:7.72px;"/>
            </g>
            <g transform="matrix(1,0,0,1,-15.449498,0)">
                <path d="M484.992,120.579L484.992,160.826L458.677,160.826L458.677,43.995L499.901,43.995C529.34,43.995 544.059,56.406 544.059,81.228C544.059,92.96 539.836,102.451 531.39,109.702C522.944,116.953 511.66,120.579 497.539,120.579L484.992,120.579ZM484.992,64.2L484.992,100.618L495.339,100.618C509.352,100.618 516.359,94.481 516.359,82.206C516.359,70.202 509.352,64.2 495.339,64.2L484.992,64.2Z" style="fill:url(#_Radial2);fill-rule:nonzero;stroke:rgb(255,251,98);stroke-width:7.72px;"/>
            </g>
            <rect x="561.168" y="43.995" width="26.315" height="116.831" style="fill:url(#_Radial3);fill-rule:nonzero;stroke:rgb(255,251,98);stroke-width:7.72px;"/>
            <g transform="matrix(1,0,0,1,35.533844,0)">
                <path d="M730.141,160.826L660.075,160.826L660.075,43.995L727.453,43.995L727.453,65.422L686.391,65.422L686.391,91.412L724.601,91.412L724.601,112.758L686.391,112.758L686.391,139.48L730.141,139.48L730.141,160.826Z" style="fill:url(#_Radial4);fill-rule:nonzero;stroke:rgb(255,251,98);stroke-width:7.72px;"/>
            </g>
            <g transform="matrix(1,0,0,1,61.79799,0)">
                <path d="M882.005,160.826L856.015,160.826L856.015,90.923C856.015,83.373 856.341,75.036 856.993,65.911L856.341,65.911C854.983,73.081 853.761,78.241 852.675,81.391L825.3,160.826L803.792,160.826L775.928,82.206C775.168,80.087 773.946,74.656 772.262,65.911L771.529,65.911C772.235,77.426 772.588,87.528 772.588,96.219L772.588,160.826L748.88,160.826L748.88,43.995L787.416,43.995L811.287,113.246C813.188,118.786 814.573,124.354 815.442,129.948L815.931,129.948C817.398,123.485 818.946,117.863 820.575,113.083L844.446,43.995L882.005,43.995L882.005,160.826Z" style="fill:url(#_Radial5);fill-rule:nonzero;stroke:rgb(255,251,98);stroke-width:7.72px;"/>
            </g>
            <g transform="matrix(1,0,0,1,78.792437,0)">
                <path d="M978.142,160.826L908.565,160.826L908.565,43.995L934.88,43.995L934.88,139.48L978.142,139.48L978.142,160.826Z" style="fill:url(#_Radial6);fill-rule:nonzero;stroke:rgb(255,251,98);stroke-width:7.72px;"/>
            </g>
            <g transform="matrix(1,0,0,1,135.955578,0)">
                <path d="M1208.3,160.826L1175.059,160.826L1141.004,110.069C1140.352,109.091 1139.32,106.946 1137.908,103.633L1137.501,103.633L1137.501,160.826L1111.185,160.826L1111.185,43.995L1137.501,43.995L1137.501,99.233L1137.908,99.233C1138.56,97.712 1139.646,95.54 1141.167,92.715L1173.43,43.995L1204.797,43.995L1164.061,99.722L1208.3,160.826Z" style="fill:url(#_Radial7);fill-rule:nonzero;stroke:rgb(255,251,98);stroke-width:7.72px;"/>
            </g>
        </g>
        <g id="path11" serif:id="path1" transform="matrix(1.333333,0,0,-1.333333,1.333333,352.3656)">
            <path d="M0,21.095C4.281,21.003 8.944,20.14 10.131,23.919C10.737,25.847 10.364,176.522 10.354,192.958C10.352,197.275 10.348,201.591 10.35,205.908C10.353,219.247 9.163,219.396 16.312,216.975C18.371,216.277 19.379,216.277 19.653,213.916L19.664,48.237C19.679,44.4 19.087,25.008 20.206,23.056C21.863,20.162 27.717,20.273 29.174,22.69C30.395,24.715 29.839,31.776 29.839,34.64L29.846,200.404C29.84,213.955 28.702,213.713 36.691,210.807C39.592,209.751 39.297,208.827 39.286,205.586L39.319,97.773C39.391,77.273 39.303,56.76 39.316,36.258C39.321,29.131 36.797,18.871 46.958,21.054C49.234,21.543 50.137,22.954 50.189,25.564C50.323,32.388 49.732,51.964 50.276,56.655C57.765,62.421 68.376,69.59 75.188,75.088L83.589,81.16L92.606,70.535C97.816,64.199 108.409,52.129 113.108,46.026L129.031,26.989C135.715,19.247 131.584,20.914 143.161,20.913C152.687,20.913 175.359,20.507 183.262,20.98L178.939,26.067C171.452,34.465 163.803,42.779 156.466,51.496L151.969,56.718C150.495,58.516 148.828,60.116 147.483,61.949L123.282,90.186C120.414,93.952 114.852,99.789 112.219,103.277L146.045,129.527C147.347,130.538 150.028,132.226 150.777,133.54C154.342,139.797 175.25,176.285 175.448,177.596L159.804,168.226C154.691,165.026 149.485,161.863 144.057,158.718C138.722,155.627 133.588,152.301 128.325,149.2C112.061,139.619 97.448,130.216 81.496,120.27L58.07,105.811C55.44,104.145 52.866,102.464 50.249,101.085L50.147,217.049L0.05,235.508L0,21.095Z" style="fill:url(#_Radial8);stroke:url(#_Radial9);stroke-width:5.25px;"/>
        </g>
        <g id="path21" serif:id="path2" transform="matrix(1.333333,0,0,-1.333333,1.333333,352.3656)">
            <path d="M63.112,122.598C64.897,123.46 66.688,124.894 68.371,125.94L104.781,149.739L104.816,212.507L89.819,218.274L83.652,263.274C82.763,262.412 82.554,261.459 81.907,260.035L77.295,249.428C75.291,244.695 73.231,240.104 71.293,235.358C69.554,231.104 63.038,217.513 63.077,213.361L63.112,122.598Z" style="fill:url(#_Radial10);stroke:rgb(255,255,0);stroke-width:5.25px;"/>
        </g>
        <g id="path31" serif:id="path3" transform="matrix(1.333333,0,0,-1.333333,1.333333,352.3656)">
            <path d="M118.252,213.02L118.17,159.638C119.065,160.428 122.755,167.02 123.592,168.498C129.933,179.703 143.551,202.454 150.914,213.055L159.575,225.755C160.423,226.97 161.978,229.072 162.533,230.229C159.613,229.535 154.661,227.198 151.496,226.073L129.317,217.494C125.557,216.034 121.668,214.271 118.252,213.02" style="fill:rgb(255,172,0);stroke:rgb(255,255,0);stroke-width:5.25px;"/>
        </g>
        <g id="path41" serif:id="path4" transform="matrix(1.333333,0,0,-1.333333,1.333333,352.3656)">
            <path d="M286.565,109.645L313.831,109.645L272.851,179.197L312.851,223.932L281.994,223.932L248.524,187.034L248.524,223.932L225.667,223.932L225.667,109.645L248.524,109.645L248.524,152.911L257.341,161.891L286.565,109.645ZM422.834,223.932L364.548,109.482L390.181,109.482L425.61,179.034L458.263,109.482L483.57,109.482L429.528,223.932L422.834,223.932ZM558.777,223.932L535.92,223.932L535.92,109.645L601.39,109.645L601.39,132.34L558.777,132.34L558.777,223.932ZM674.802,235.034C681.659,235.034 686.883,240.096 686.883,247.116C686.883,254.137 681.659,259.198 674.802,259.198C667.781,259.198 662.72,254.137 662.72,247.116C662.72,240.096 667.781,235.034 674.802,235.034ZM663.536,109.645L663.536,223.932L686.394,223.932L686.394,109.645L663.536,109.645ZM835.724,109.482L771.397,176.258L771.397,109.482L748.54,109.482L748.54,223.932L755.724,223.932L818.908,159.932L818.908,223.932L841.765,223.932L841.765,109.482L835.724,109.482ZM903.911,223.932L903.911,109.645L913.217,109.645L913.217,109.482L936.238,109.482C943.912,109.482 951.422,110.952 958.442,114.054C965.299,116.829 971.34,121.074 976.565,126.299C981.953,131.523 986.034,137.564 988.81,144.421C991.912,151.442 993.381,158.952 993.381,166.789C993.381,174.463 991.912,181.973 988.81,188.993C986.034,195.851 981.953,201.891 976.565,207.279C971.34,212.504 965.299,216.585 958.442,219.524C951.422,222.463 943.912,223.932 936.238,223.932L903.911,223.932ZM926.769,132.34L926.769,201.075L936.238,201.075C955.177,201.075 970.524,185.728 970.524,166.789C970.524,147.85 955.177,132.34 936.238,132.34L926.769,132.34ZM1095.854,223.932L1037.568,109.482L1063.201,109.482L1098.63,179.034L1131.283,109.482L1156.59,109.482L1102.548,223.932L1095.854,223.932Z" style="fill:url(#_Radial11);fill-rule:nonzero;stroke:url(#_Radial12);stroke-width:5.25px;"/>
        </g>
        <g transform="matrix(1,0,0,1,199.030253,174.014719)">
            <path d="M428.678,146.659L463.508,71.289L467.463,71.279L499.726,146.617L484.661,146.617L465.172,100.908L443.968,146.672L428.678,146.659Z" style="fill:url(#_Linear13);stroke:rgb(255,255,0);stroke-width:5px;stroke-linecap:round;stroke-miterlimit:1.5;"/>
        </g>
        <g transform="matrix(1,0,0,1,714.759391,174.242919)">
            <path d="M428.678,146.659L463.508,71.289L467.463,71.279L499.726,146.617L484.661,146.617L465.172,100.908L443.968,146.672L428.678,146.659Z" style="fill:url(#_Linear14);stroke:rgb(255,255,0);stroke-width:5px;stroke-linecap:round;stroke-miterlimit:1.5;"/>
        </g>
        <g id="path61" serif:id="path6" transform="matrix(1.333333,0,0,-1.333333,1.333333,352.3656)">
            <rect x="225.667" y="45.409" width="144.034" height="6.037" style="fill:rgb(255,212,0);stroke:url(#_Linear15);stroke-width:2.25px;"/>
        </g>
        <g id="path71" serif:id="path7" transform="matrix(1.333333,0,0,-1.333333,1.333333,352.3656)">
            <rect x="1012.556" y="45.409" width="144.034" height="6.037" style="fill:rgb(255,212,0);stroke:url(#_Linear16);stroke-width:2.25px;"/>
        </g>
    </g>
    <defs>
        <radialGradient id="_Radial1" cx="0" cy="0" r="1" gradientUnits="userSpaceOnUse" gradientTransform="matrix(584.514014,0,0,58.415395,759.741619,102.410626)"><stop offset="0" style="stop-color:white;stop-opacity:1"/><stop offset="0.2" style="stop-color:rgb(255,225,155);stop-opacity:1"/><stop offset="0.43" style="stop-color:rgb(255,193,50);stop-opacity:1"/><stop offset="1" style="stop-color:rgb(255,178,0);stop-opacity:1"/></radialGradient>
        <radialGradient id="_Radial2" cx="0" cy="0" r="1" gradientUnits="userSpaceOnUse" gradientTransform="matrix(584.514014,0,0,58.415395,759.741619,102.410626)"><stop offset="0" style="stop-color:white;stop-opacity:1"/><stop offset="0.2" style="stop-color:rgb(255,225,155);stop-opacity:1"/><stop offset="0.43" style="stop-color:rgb(255,193,50);stop-opacity:1"/><stop offset="1" style="stop-color:rgb(255,178,0);stop-opacity:1"/></radialGradient>
        <radialGradient id="_Radial3" cx="0" cy="0" r="1" gradientUnits="userSpaceOnUse" gradientTransform="matrix(584.514014,0,0,58.415395,759.741619,102.410626)"><stop offset="0" style="stop-color:white;stop-opacity:1"/><stop offset="0.2" style="stop-color:rgb(255,225,155);stop-opacity:1"/><stop offset="0.43" style="stop-color:rgb(255,193,50);stop-opacity:1"/><stop offset="1" style="stop-color:rgb(255,178,0);stop-opacity:1"/></radialGradient>
        <radialGradient id="_Radial4" cx="0" cy="0" r="1" gradientUnits="userSpaceOnUse" gradientTransform="matrix(584.514014,0,0,58.415395,759.741619,102.410626)"><stop offset="0" style="stop-color:white;stop-opacity:1"/><stop offset="0.2" style="stop-color:rgb(255,225,155);stop-opacity:1"/><stop offset="0.43" style="stop-color:rgb(255,193,50);stop-opacity:1"/><stop offset="1" style="stop-color:rgb(255,178,0);stop-opacity:1"/></radialGradient>
        <radialGradient id="_Radial5" cx="0" cy="0" r="1" gradientUnits="userSpaceOnUse" gradientTransform="matrix(584.514014,0,0,58.415395,759.741619,102.410626)"><stop offset="0" style="stop-color:white;stop-opacity:1"/><stop offset="0.2" style="stop-color:rgb(255,225,155);stop-opacity:1"/><stop offset="0.43" style="stop-color:rgb(255,193,50);stop-opacity:1"/><stop offset="1" style="stop-color:rgb(255,178,0);stop-opacity:1"/></radialGradient>
        <radialGradient id="_Radial6" cx="0" cy="0" r="1" gradientUnits="userSpaceOnUse" gradientTransform="matrix(584.514014,0,0,58.415395,759.741619,102.410626)"><stop offset="0" style="stop-color:white;stop-opacity:1"/><stop offset="0.2" style="stop-color:rgb(255,225,155);stop-opacity:1"/><stop offset="0.43" style="stop-color:rgb(255,193,50);stop-opacity:1"/><stop offset="1" style="stop-color:rgb(255,178,0);stop-opacity:1"/></radialGradient>
        <radialGradient id="_Radial7" cx="0" cy="0" r="1" gradientUnits="userSpaceOnUse" gradientTransform="matrix(584.514014,0,0,58.415395,759.741619,102.410626)"><stop offset="0" style="stop-color:white;stop-opacity:1"/><stop offset="0.2" style="stop-color:rgb(255,225,155);stop-opacity:1"/><stop offset="0.43" style="stop-color:rgb(255,193,50);stop-opacity:1"/><stop offset="1" style="stop-color:rgb(255,178,0);stop-opacity:1"/></radialGradient>
        <radialGradient id="_Radial8" cx="0" cy="0" r="1" gradientUnits="userSpaceOnUse" gradientTransform="matrix(91.6312,0,0,107.378694,91.6312,128.129606)"><stop offset="0" style="stop-color:white;stop-opacity:1"/><stop offset="1" style="stop-color:rgb(255,172,0);stop-opacity:1"/></radialGradient>
        <radialGradient id="_Radial9" cx="0" cy="0" r="1" gradientUnits="userSpaceOnUse" gradientTransform="matrix(91.6312,0,0,107.378694,91.6312,128.129606)"><stop offset="0" style="stop-color:white;stop-opacity:1"/><stop offset="0.61" style="stop-color:rgb(255,255,211);stop-opacity:1"/><stop offset="0.82" style="stop-color:rgb(255,255,108);stop-opacity:1"/><stop offset="1" style="stop-color:rgb(255,255,0);stop-opacity:1"/></radialGradient>
        <radialGradient id="_Radial10" cx="0" cy="0" r="1" gradientUnits="userSpaceOnUse" gradientTransform="matrix(20.869886,0,0,70.33815,83.946514,192.93605)"><stop offset="0" style="stop-color:white;stop-opacity:1"/><stop offset="1" style="stop-color:rgb(255,172,0);stop-opacity:1"/></radialGradient>
        <radialGradient id="_Radial11" cx="0" cy="0" r="1" gradientUnits="userSpaceOnUse" gradientTransform="matrix(930.9229,0,0,149.7158,225.6667,184.3401)"><stop offset="0" style="stop-color:white;stop-opacity:1"/><stop offset="0" style="stop-color:rgb(255,217,137);stop-opacity:1"/><stop offset="0.01" style="stop-color:rgb(255,206,103);stop-opacity:1"/><stop offset="1" style="stop-color:rgb(255,172,0);stop-opacity:1"/></radialGradient>
        <radialGradient id="_Radial12" cx="0" cy="0" r="1" gradientUnits="userSpaceOnUse" gradientTransform="matrix(465.46145,0,0,74.8579,691.12815,184.3401)"><stop offset="0" style="stop-color:white;stop-opacity:1"/><stop offset="0.61" style="stop-color:rgb(255,255,212);stop-opacity:1"/><stop offset="0.82" style="stop-color:rgb(255,255,109);stop-opacity:1"/><stop offset="1" style="stop-color:rgb(255,255,0);stop-opacity:1"/></radialGradient>
        <linearGradient id="_Linear13" x1="0" y1="0" x2="1" y2="0" gradientUnits="userSpaceOnUse" gradientTransform="matrix(71.048061,0,0,75.392894,428.677931,108.97532)"><stop offset="0" style="stop-color:white;stop-opacity:1"/><stop offset="0.49" style="stop-color:rgb(255,197,62);stop-opacity:1"/><stop offset="1" style="stop-color:rgb(255,178,0);stop-opacity:1"/></linearGradient>
        <linearGradient id="_Linear14" x1="0" y1="0" x2="1" y2="0" gradientUnits="userSpaceOnUse" gradientTransform="matrix(71.048061,0,0,75.392894,428.677931,108.97532)"><stop offset="0" style="stop-color:white;stop-opacity:1"/><stop offset="0.54" style="stop-color:rgb(255,200,72);stop-opacity:1"/><stop offset="1" style="stop-color:rgb(255,178,0);stop-opacity:1"/></linearGradient>
        <linearGradient id="_Linear15" x1="0" y1="0" x2="1" y2="0" gradientUnits="userSpaceOnUse" gradientTransform="matrix(144.0337,0,0,6.037,225.6667,48.4275)"><stop offset="0" style="stop-color:white;stop-opacity:1"/><stop offset="0.54" style="stop-color:rgb(255,255,199);stop-opacity:1"/><stop offset="1" style="stop-color:rgb(255,255,0);stop-opacity:1"/></linearGradient>
        <linearGradient id="_Linear16" x1="0" y1="0" x2="1" y2="0" gradientUnits="userSpaceOnUse" gradientTransform="matrix(144.0338,0,0,6.037,1012.5558,48.4275)"><stop offset="0" style="stop-color:white;stop-opacity:1"/><stop offset="0.45" style="stop-color:rgb(255,255,182);stop-opacity:1"/><stop offset="1" style="stop-color:rgb(255,255,0);stop-opacity:1"/></linearGradient>
    </defs>
</svg>
