<?xml version="1.0" encoding="UTF-8" standalone="no"?>
<!DOCTYPE svg PUBLIC "-//W3C//DTD SVG 1.1//EN" "http://www.w3.org/Graphics/SVG/1.1/DTD/svg11.dtd">
<svg width="100%" height="100%" viewBox="0 0 200 250" version="1.1" xmlns="http://www.w3.org/2000/svg" xmlns:xlink="http://www.w3.org/1999/xlink" xml:space="preserve" xmlns:serif="http://www.serif.com/" style="fill-rule:evenodd;clip-rule:evenodd;stroke-linejoin:round;stroke-miterlimit:2;">
    <g id="path1" transform="matrix(1.018679,0,0,-0.975177,7.657178,263.567614)">
        <path d="M0,21.095C4.281,21.003 8.944,20.14 10.131,23.919C10.737,25.847 10.364,176.522 10.354,192.958C10.352,197.275 10.348,201.591 10.35,205.908C10.353,219.247 9.163,219.396 16.312,216.975C18.371,216.277 19.379,216.277 19.653,213.916L19.664,48.237C19.679,44.4 19.087,25.008 20.206,23.056C21.863,20.162 27.717,20.273 29.174,22.69C30.395,24.715 29.839,31.776 29.839,34.64L29.846,200.404C29.84,213.955 28.702,213.713 36.691,210.807C39.592,209.751 39.297,208.827 39.286,205.586L39.319,97.773C39.391,77.273 39.303,56.76 39.316,36.258C39.321,29.131 36.797,18.871 46.958,21.054C49.234,21.543 50.137,22.954 50.189,25.564C50.323,32.388 49.732,51.964 50.276,56.655C57.765,62.421 68.376,69.59 75.188,75.088L83.589,81.16L92.606,70.535C97.816,64.199 108.409,52.129 113.108,46.026L129.031,26.989C135.715,19.247 131.584,20.914 143.161,20.913C152.687,20.913 175.359,20.507 183.262,20.98L178.939,26.067C171.452,34.465 163.803,42.779 156.466,51.496L151.969,56.718C150.495,58.516 148.828,60.116 147.483,61.949L123.282,90.186C120.414,93.952 114.852,99.789 112.219,103.277L146.045,129.527C147.347,130.538 150.028,132.226 150.777,133.54C154.342,139.797 175.25,176.285 175.448,177.596L159.804,168.226C154.691,165.026 149.485,161.863 144.057,158.718C138.722,155.627 133.588,152.301 128.325,149.2C112.061,139.619 97.448,130.216 81.496,120.27L58.07,105.811C55.44,104.145 52.866,102.464 50.249,101.085L50.147,217.049L0.05,235.508L0,21.095Z" style="fill:rgb(205,175,147);"/>
    </g>
    <g id="path2" transform="matrix(1.018679,0,0,-0.975177,7.657178,263.567614)">
        <path d="M63.112,122.598C64.897,123.46 66.688,124.894 68.371,125.94L104.781,149.739L104.816,212.507L89.819,218.274L83.652,263.274C82.763,262.412 82.554,261.459 81.907,260.035L77.295,249.428C75.291,244.695 73.231,240.104 71.293,235.358C69.554,231.104 63.038,217.513 63.077,213.361L63.112,122.598Z" style="fill:rgb(205,175,147);"/>
    </g>
    <g id="path3" transform="matrix(1.018679,0,0,-0.975177,7.657178,263.567614)">
        <path d="M118.252,213.02L118.17,159.638C119.065,160.428 122.755,167.02 123.592,168.498C129.933,179.703 143.551,202.454 150.914,213.055L159.575,225.755C160.423,226.97 161.978,229.072 162.533,230.229C159.613,229.535 154.661,227.198 151.496,226.073L129.317,217.494C125.557,216.034 121.668,214.271 118.252,213.02" style="fill:rgb(205,175,147);"/>
    </g>
    <g id="path11" serif:id="path1" transform="matrix(1.018679,0,0,-0.975177,7.657178,263.567614)">
        <path d="M0,21.095C4.281,21.003 8.944,20.14 10.131,23.919C10.737,25.847 10.364,176.522 10.354,192.958C10.352,197.275 10.348,201.591 10.35,205.908C10.353,219.247 9.163,219.396 16.312,216.975C18.371,216.277 19.379,216.277 19.653,213.916L19.664,48.237C19.679,44.4 19.087,25.008 20.206,23.056C21.863,20.162 27.717,20.273 29.174,22.69C30.395,24.715 29.839,31.776 29.839,34.64L29.846,200.404C29.84,213.955 28.702,213.713 36.691,210.807C39.592,209.751 39.297,208.827 39.286,205.586L39.319,97.773C39.391,77.273 39.303,56.76 39.316,36.258C39.321,29.131 36.797,18.871 46.958,21.054C49.234,21.543 50.137,22.954 50.189,25.564C50.323,32.388 49.732,51.964 50.276,56.655C57.765,62.421 68.376,69.59 75.188,75.088L83.589,81.16L92.606,70.535C97.816,64.199 108.409,52.129 113.108,46.026L129.031,26.989C135.715,19.247 131.584,20.914 143.161,20.913C152.687,20.913 175.359,20.507 183.262,20.98L178.939,26.067C171.452,34.465 163.803,42.779 156.466,51.496L151.969,56.718C150.495,58.516 148.828,60.116 147.483,61.949L123.282,90.186C120.414,93.952 114.852,99.789 112.219,103.277L146.045,129.527C147.347,130.538 150.028,132.226 150.777,133.54C154.342,139.797 175.25,176.285 175.448,177.596L159.804,168.226C154.691,165.026 149.485,161.863 144.057,158.718C138.722,155.627 133.588,152.301 128.325,149.2C112.061,139.619 97.448,130.216 81.496,120.27L58.07,105.811C55.44,104.145 52.866,102.464 50.249,101.085L50.147,217.049L0.05,235.508L0,21.095Z" style="fill:url(#_Radial1);stroke:url(#_Radial2);stroke-width:7.02px;"/>
    </g>
    <g id="path21" serif:id="path2" transform="matrix(1.018679,0,0,-0.975177,7.657178,263.567614)">
        <path d="M63.112,122.598C64.897,123.46 66.688,124.894 68.371,125.94L104.781,149.739L104.816,212.507L89.819,218.274L83.652,263.274C82.763,262.412 82.554,261.459 81.907,260.035L77.295,249.428C75.291,244.695 73.231,240.104 71.293,235.358C69.554,231.104 63.038,217.513 63.077,213.361L63.112,122.598Z" style="fill:url(#_Radial3);stroke:rgb(255,255,0);stroke-width:7.02px;"/>
    </g>
    <g id="path31" serif:id="path3" transform="matrix(1.018679,0,0,-0.975177,7.657178,263.567614)">
        <path d="M118.252,213.02L118.17,159.638C119.065,160.428 122.755,167.02 123.592,168.498C129.933,179.703 143.551,202.454 150.914,213.055L159.575,225.755C160.423,226.97 161.978,229.072 162.533,230.229C159.613,229.535 154.661,227.198 151.496,226.073L129.317,217.494C125.557,216.034 121.668,214.271 118.252,213.02" style="fill:rgb(255,172,0);stroke:rgb(255,255,0);stroke-width:7.02px;"/>
    </g>
    <defs>
        <radialGradient id="_Radial1" cx="0" cy="0" r="1" gradientUnits="userSpaceOnUse" gradientTransform="matrix(91.6312,0,0,107.378694,91.6312,128.129606)"><stop offset="0" style="stop-color:white;stop-opacity:1"/><stop offset="1" style="stop-color:rgb(255,172,0);stop-opacity:1"/></radialGradient>
        <radialGradient id="_Radial2" cx="0" cy="0" r="1" gradientUnits="userSpaceOnUse" gradientTransform="matrix(91.6312,0,0,107.378694,91.6312,128.129606)"><stop offset="0" style="stop-color:white;stop-opacity:1"/><stop offset="0.61" style="stop-color:rgb(255,255,211);stop-opacity:1"/><stop offset="0.82" style="stop-color:rgb(255,255,108);stop-opacity:1"/><stop offset="1" style="stop-color:rgb(255,255,0);stop-opacity:1"/></radialGradient>
        <radialGradient id="_Radial3" cx="0" cy="0" r="1" gradientUnits="userSpaceOnUse" gradientTransform="matrix(20.869886,0,0,70.33815,83.946514,192.93605)"><stop offset="0" style="stop-color:white;stop-opacity:1"/><stop offset="1" style="stop-color:rgb(255,172,0);stop-opacity:1"/></radialGradient>
    </defs>
</svg>
